# xmcd
#
# Track frame offsets:
#	150
#	18359
#	33882
#	49385
#
# Disc length: 904 seconds
#
# Revision: 0
# Processed by: cddbd v1.5.2PL0 Copyright (c) Steve Scherf et al.
# Submitted via: audiograbber 1.83.01
#
DISCID=29038604
DTITLE=Ole Skovhøj - My Hometown
DYEAR=2015
DGENRE=Country
TTITLE0=Marmalade Kisses 
TTITLE1=Midnight Train 
TTITLE2=My Hometown 
TTITLE3=I Don't Need You Now
EXTD=
EXTT0=
EXTT1=
EXTT2=
EXTT3=
PLAYORDER=
